<svg xmlns="http://www.w3.org/2000/svg" xmlns:xlink="http://www.w3.org/1999/xlink" version="1.1" width="60" height="55"><rect id="backgroundrect" width="100%" height="100%" x="0" y="0" fill="none" stroke="none"/><title>54 -Web Development- (Solid)</title><desc>Created with Sketch.</desc><g class="currentLayer"><title>Layer 1</title><g stroke="none" stroke-width="1" fill="none" fill-rule="evenodd" id="svg_1"><g fill="#000000" id="svg_2"><g id="svg_3"><path d="M58,42 L2,42 L2,40 L24.50799999999998,40 C24.973000000000013,40.61699999999996 25.706000000000017,41 26.5,41 L34.5,41 C35.29399999999998,41 36.02699999999999,40.61699999999996 36.49200000000002,40 L58,40 L58,42 zM6,5 C6,4.447000000000003 6.447999999999979,4 7,4 L53,4 C53.55200000000002,4 54,4.447000000000003 54,5 L54,35 C54,35.553 53.55200000000002,36 53,36 L7,36 C6.447999999999979,36 6,35.553 6,35 L6,5 zM58.422000000000025,38 L58,38 L58,4 C58,1.7939999999999827 56.20600000000002,0 54,0 L6,0 C3.7939999999999827,0 2,1.7939999999999827 2,4 L2,38 L1.5779999999999745,38 C0.7080000000000268,38 0,38.70799999999997 0,39.577999999999975 L0,42.422000000000025 C0,43.29200000000003 0.7080000000000268,44 1.5779999999999745,44 L58.422000000000025,44 C59.29200000000003,44 60,43.29200000000003 60,42.422000000000025 L60,39.577999999999975 C60,38.70799999999997 59.29200000000003,38 58.422000000000025,38 L58.422000000000025,38 z" id="svg_4"/><path d="M44.78030000000001,20.6318 L40.78030000000001,25.62480000000005 C40.58330000000001,25.871800000000007 40.29230000000001,25.99980000000005 39.999300000000005,25.99980000000005 C39.78030000000001,25.99980000000005 39.55930000000001,25.928800000000024 39.37529999999998,25.779800000000023 C38.9443,25.435799999999972 38.874300000000005,24.805799999999977 39.219299999999976,24.37480000000005 L42.719299999999976,20.005800000000022 L39.2183,15.62379999999996 C38.874300000000005,15.192800000000034 38.9443,14.563800000000015 39.376300000000015,14.218799999999987 C39.8073,13.87480000000005 40.43729999999999,13.944799999999987 40.78129999999999,14.375800000000027 L44.78129999999999,19.382799999999975 C45.07330000000002,19.747799999999984 45.072299999999984,20.26679999999999 44.78030000000001,20.6318 L44.78030000000001,20.6318 zM36.00029999999998,25.99980000000005 L34.00029999999998,25.99980000000005 C33.447299999999984,25.99980000000005 33.00029999999998,25.552800000000047 33.00029999999998,24.99980000000005 C33.00029999999998,24.446800000000053 33.447299999999984,23.99980000000005 34.00029999999998,23.99980000000005 L36.00029999999998,23.99980000000005 C36.5523,23.99980000000005 37.00029999999998,24.446800000000053 37.00029999999998,24.99980000000005 C37.00029999999998,25.552800000000047 36.5523,25.99980000000005 36.00029999999998,25.99980000000005 L36.00029999999998,25.99980000000005 zM30.00029999999998,25.99980000000005 L28.00029999999998,25.99980000000005 C27.447299999999984,25.99980000000005 27.00029999999998,25.552800000000047 27.00029999999998,24.99980000000005 C27.00029999999998,24.446800000000053 27.447299999999984,23.99980000000005 28.00029999999998,23.99980000000005 L30.00029999999998,23.99980000000005 C30.552300000000002,23.99980000000005 31.00029999999998,24.446800000000053 31.00029999999998,24.99980000000005 C31.00029999999998,25.552800000000047 30.552300000000002,25.99980000000005 30.00029999999998,25.99980000000005 L30.00029999999998,25.99980000000005 zM25.00029999999998,20.99980000000005 C25.00029999999998,21.552800000000047 24.552300000000002,21.99980000000005 24.00029999999998,21.99980000000005 C23.447299999999984,21.99980000000005 23.00029999999998,21.552800000000047 23.00029999999998,20.99980000000005 L23.00029999999998,14.99980000000005 C23.00029999999998,14.446800000000053 23.447299999999984,13.99980000000005 24.00029999999998,13.99980000000005 C24.552300000000002,13.99980000000005 25.00029999999998,14.446800000000053 25.00029999999998,14.99980000000005 L25.00029999999998,20.99980000000005 zM24.00029999999998,25.99980000000005 C23.447299999999984,25.99980000000005 23.00029999999998,25.552800000000047 23.00029999999998,24.99980000000005 C23.00029999999998,24.446800000000053 23.447299999999984,23.99980000000005 24.00029999999998,23.99980000000005 C24.552300000000002,23.99980000000005 25.00029999999998,24.446800000000053 25.00029999999998,24.99980000000005 C25.00029999999998,25.552800000000047 24.552300000000002,25.99980000000005 24.00029999999998,25.99980000000005 L24.00029999999998,25.99980000000005 zM20.62529999999998,25.779800000000023 C20.441300000000012,25.928800000000024 20.219299999999976,25.99980000000005 20.00029999999998,25.99980000000005 C19.707299999999975,25.99980000000005 19.41730000000001,25.871800000000007 19.219299999999976,25.62480000000005 L15.219299999999976,20.6318 C14.927300000000002,20.26679999999999 14.926300000000026,19.747799999999984 15.2183,19.382799999999975 L19.2183,14.375800000000027 C19.563300000000027,13.94380000000001 20.193300000000022,13.872799999999984 20.624300000000005,14.218799999999987 C21.05529999999999,14.563800000000015 21.126300000000015,15.192800000000034 20.781299999999987,15.62379999999996 L17.28030000000001,20.005800000000022 L20.78030000000001,24.37480000000005 C21.126300000000015,24.805799999999977 21.05630000000002,25.435799999999972 20.62529999999998,25.779800000000023 L20.62529999999998,25.779800000000023 zM8.000299999999982,33.99980000000005 L52.00029999999998,33.99980000000005 L52.00029999999998,5.99980000000005 L8.000299999999982,5.99980000000005 L8.000299999999982,33.99980000000005 z" id="svg_5"/></g></g></g></g></svg>