<svg xmlns="http://www.w3.org/2000/svg" xmlns:xlink="http://www.w3.org/1999/xlink" version="1.1" enable-background="new 0 0 64 64" xml:space="preserve" width="64" height="80"><rect id="backgroundrect" width="100%" height="100%" x="0" y="0" fill="none" stroke="none"/><g class="currentLayer"><title>Layer 1</title><g id="svg_1"><g id="svg_2"><path d="M32,7C17.112,7,5,18.215,5,32c0,5.715,2.127,11.279,6,15.713V56c0,0.553,0.448,1,1,1h20c14.888,0,27-11.215,27-25    S46.888,7,32,7z M20,37c-2.757,0-5-2.243-5-5s2.243-5,5-5s5,2.243,5,5S22.757,37,20,37z M32,37c-2.757,0-5-2.243-5-5s2.243-5,5-5    s5,2.243,5,5S34.757,37,32,37z M44,37c-2.757,0-5-2.243-5-5s2.243-5,5-5s5,2.243,5,5S46.757,37,44,37z" id="svg_3"/><circle cx="32" cy="32" r="3" id="svg_4"/><circle cx="44" cy="32" r="3" id="svg_5"/><circle cx="20" cy="32" r="3" id="svg_6"/></g></g></g></svg>