<svg xmlns="http://www.w3.org/2000/svg" xmlns:xlink="http://www.w3.org/1999/xlink" viewBox="0 0 60 55" version="1.1" x="0px" y="0px"><title>54 -Web Development- (Solid)</title><desc>Created with Sketch.</desc><g stroke="none" stroke-width="1" fill="none" fill-rule="evenodd"><g transform="translate(-480.000000, -948.000000)" fill="#000000"><g transform="translate(480.000000, 948.000000)"><path d="M58,42 L2,42 L2,40 L24.508,40 C24.973,40.617 25.706,41 26.5,41 L34.5,41 C35.294,41 36.027,40.617 36.492,40 L58,40 L58,42 Z M6,5 C6,4.447 6.448,4 7,4 L53,4 C53.552,4 54,4.447 54,5 L54,35 C54,35.553 53.552,36 53,36 L7,36 C6.448,36 6,35.553 6,35 L6,5 Z M58.422,38 L58,38 L58,4 C58,1.794 56.206,0 54,0 L6,0 C3.794,0 2,1.794 2,4 L2,38 L1.578,38 C0.708,38 0,38.708 0,39.578 L0,42.422 C0,43.292 0.708,44 1.578,44 L58.422,44 C59.292,44 60,43.292 60,42.422 L60,39.578 C60,38.708 59.292,38 58.422,38 L58.422,38 Z"/><path d="M44.7803,20.6318 L40.7803,25.6248 C40.5833,25.8718 40.2923,25.9998 39.9993,25.9998 C39.7803,25.9998 39.5593,25.9288 39.3753,25.7798 C38.9443,25.4358 38.8743,24.8058 39.2193,24.3748 L42.7193,20.0058 L39.2183,15.6238 C38.8743,15.1928 38.9443,14.5638 39.3763,14.2188 C39.8073,13.8748 40.4373,13.9448 40.7813,14.3758 L44.7813,19.3828 C45.0733,19.7478 45.0723,20.2668 44.7803,20.6318 L44.7803,20.6318 Z M36.0003,25.9998 L34.0003,25.9998 C33.4473,25.9998 33.0003,25.5528 33.0003,24.9998 C33.0003,24.4468 33.4473,23.9998 34.0003,23.9998 L36.0003,23.9998 C36.5523,23.9998 37.0003,24.4468 37.0003,24.9998 C37.0003,25.5528 36.5523,25.9998 36.0003,25.9998 L36.0003,25.9998 Z M30.0003,25.9998 L28.0003,25.9998 C27.4473,25.9998 27.0003,25.5528 27.0003,24.9998 C27.0003,24.4468 27.4473,23.9998 28.0003,23.9998 L30.0003,23.9998 C30.5523,23.9998 31.0003,24.4468 31.0003,24.9998 C31.0003,25.5528 30.5523,25.9998 30.0003,25.9998 L30.0003,25.9998 Z M25.0003,20.9998 C25.0003,21.5528 24.5523,21.9998 24.0003,21.9998 C23.4473,21.9998 23.0003,21.5528 23.0003,20.9998 L23.0003,14.9998 C23.0003,14.4468 23.4473,13.9998 24.0003,13.9998 C24.5523,13.9998 25.0003,14.4468 25.0003,14.9998 L25.0003,20.9998 Z M24.0003,25.9998 C23.4473,25.9998 23.0003,25.5528 23.0003,24.9998 C23.0003,24.4468 23.4473,23.9998 24.0003,23.9998 C24.5523,23.9998 25.0003,24.4468 25.0003,24.9998 C25.0003,25.5528 24.5523,25.9998 24.0003,25.9998 L24.0003,25.9998 Z M20.6253,25.7798 C20.4413,25.9288 20.2193,25.9998 20.0003,25.9998 C19.7073,25.9998 19.4173,25.8718 19.2193,25.6248 L15.2193,20.6318 C14.9273,20.2668 14.9263,19.7478 15.2183,19.3828 L19.2183,14.3758 C19.5633,13.9438 20.1933,13.8728 20.6243,14.2188 C21.0553,14.5638 21.1263,15.1928 20.7813,15.6238 L17.2803,20.0058 L20.7803,24.3748 C21.1263,24.8058 21.0563,25.4358 20.6253,25.7798 L20.6253,25.7798 Z M8.0003,33.9998 L52.0003,33.9998 L52.0003,5.9998 L8.0003,5.9998 L8.0003,33.9998 Z"/></g></g></g><text x="0" y="59" fill="#000000" font-size="5px" font-weight="bold" font-family="'Helvetica Neue', Helvetica, Arial-Unicode, Arial, Sans-serif">Created by Oliviu Stoian</text><text x="0" y="64" fill="#000000" font-size="5px" font-weight="bold" font-family="'Helvetica Neue', Helvetica, Arial-Unicode, Arial, Sans-serif">from the Noun Project</text></svg>