<svg xmlns="http://www.w3.org/2000/svg" xmlns:xlink="http://www.w3.org/1999/xlink" version="1.1" enable-background="new 0 0 100 100" xml:space="preserve" width="100" height="125"><rect id="backgroundrect" width="100%" height="100%" x="0" y="0" fill="none" stroke="none"/><g class="currentLayer"><title>Layer 1</title><g id="svg_1"><path fill-rule="evenodd" clip-rule="evenodd" d="M74.406,62.891l-1.296,1.281c-0.406,0.4-0.611,0.893-0.611,1.463v13.188   c0,0.54,0.182,1.004,0.549,1.4l1.348,1.453c0.403,0.436,0.915,0.66,1.509,0.66l1.594-0.001v-20.04   c-0.502,0-1.047,0.001-1.646,0.001C75.29,62.296,74.806,62.494,74.406,62.891z" id="svg_2"/><path fill-rule="evenodd" clip-rule="evenodd" d="M74.396,18.323l-1.349,1.456c-0.367,0.395-0.549,0.858-0.549,1.398v13.078   c0,0.635,0.258,1.183,0.748,1.587l1.19,0.983c0.384,0.317,0.812,0.471,1.31,0.471c0.641,0,1.22,0,1.751,0.001V17.664h-1.593   C75.312,17.664,74.8,17.887,74.396,18.323z" id="svg_3"/><path fill-rule="evenodd" clip-rule="evenodd" d="M94.499,49.296v-0.012c0-12.822-6.206-31.62-13.184-31.62h-1.817v19.633   c0.432,0.001,0.806,0.001,1.111,0.002c0.665,0.001,1.237,0.287,1.64,0.818l0.846,1.121c0.281,0.373,0.416,0.774,0.416,1.24v9.476   h0.002v8.768c0,0.407-0.101,0.756-0.318,1.1l-0.955,1.512c-0.389,0.613-1.011,0.957-1.736,0.959c-0.283,0-0.622,0-1.005,0.001   v20.041l1.82-0.001c6.977,0,13.183-19.809,13.183-32.632L94.499,49.296z" id="svg_4"/><path fill-rule="evenodd" clip-rule="evenodd" d="M25.562,36.825l1.191-0.983c0.489-0.404,0.747-0.952,0.747-1.587V21.176   c0-0.54-0.182-1.003-0.549-1.398l-1.349-1.456c-0.404-0.436-0.915-0.659-1.509-0.659h-1.593v19.632c0.531,0,1.11,0,1.751-0.001   C24.75,37.295,25.178,37.142,25.562,36.825z" id="svg_5"/><path fill-rule="evenodd" clip-rule="evenodd" d="M5.501,49.284v0.012l-0.002,0.406c0,12.823,6.205,32.632,13.182,32.632   l1.82,0.001V62.294c-0.383-0.001-0.722-0.001-1.005-0.001c-0.726-0.002-1.348-0.346-1.736-0.959l-0.955-1.512   c-0.218-0.344-0.318-0.692-0.318-1.1v-8.768h0.003v-9.476c0-0.466,0.135-0.868,0.416-1.24l0.846-1.121   c0.401-0.532,0.974-0.817,1.639-0.818c0.306,0,0.68-0.001,1.111-0.002V17.665h-1.817C11.706,17.665,5.501,36.462,5.501,49.284z" id="svg_6"/><path fill-rule="evenodd" clip-rule="evenodd" d="M25.593,62.891c-0.399-0.396-0.883-0.595-1.445-0.595   c-0.6,0-1.145-0.001-1.646-0.001v20.04l1.594,0.001c0.594,0,1.105-0.225,1.509-0.66l1.349-1.453c0.367-0.396,0.549-0.86,0.549-1.4   V65.635c0-0.57-0.205-1.063-0.611-1.463L25.593,62.891z" id="svg_7"/><circle fill-rule="evenodd" clip-rule="evenodd" cx="50.000999450683594" cy="50.37900161743164" r="4.5" id="svg_8"/><circle fill-rule="evenodd" clip-rule="evenodd" cx="60.731998443603516" cy="50.237998962402344" r="3" id="svg_9"/><circle fill-rule="evenodd" clip-rule="evenodd" cx="69.0009994506836" cy="50.12799835205078" r="1.5" id="svg_10"/><circle fill-rule="evenodd" clip-rule="evenodd" cx="39.26900100708008" cy="50.237998962402344" r="3" id="svg_11"/><circle fill-rule="evenodd" clip-rule="evenodd" cx="31.000999450683594" cy="50.12799835205078" r="1.5" id="svg_12"/></g></g></svg>