<svg xmlns="http://www.w3.org/2000/svg" xmlns:xlink="http://www.w3.org/1999/xlink" version="1.1" width="60" height="72.5"><rect id="backgroundrect" width="100%" height="100%" x="0" y="0" fill="none" stroke="none"/><title>38 -Web Development- (Solid)</title><desc>Created with Sketch.</desc><g class="currentLayer"><title>Layer 1</title><g stroke="none" stroke-width="1" fill="none" fill-rule="evenodd" id="svg_1"><g fill="#000000" id="svg_2"><g id="svg_3"><path d="M30,39 C30.552999999999997,39 31,39.44799999999998 31,40 C31,40.55200000000002 30.552999999999997,41 30,41 C29.447000000000003,41 29,40.55200000000002 29,40 C29,39.44799999999998 29.447000000000003,39 30,39 L30,39 zM35.64200000000005,46.00199999999995 C35.509000000000015,48.33100000000002 36.524,50.61900000000003 38.370000000000005,52 L21.630999999999972,52 C23.476999999999975,50.61900000000003 24.493000000000052,48.33000000000004 24.359000000000037,46 L35.64200000000005,46.00199999999995 zM0,41.500999999999976 C0,43.98199999999997 2.018000000000029,46 4.498000000000047,46 L22.354000000000042,46 C22.49599999999998,47.75199999999995 21.73599999999999,49.480999999999995 20.331000000000017,50.47199999999998 L18.529999999999973,51.74199999999996 C18.383000000000038,51.84400000000005 18.274999999999977,51.97900000000004 18.187000000000012,52.125999999999976 C16.92999999999995,52.48299999999995 16,53.62900000000002 16,55 C16,56.653999999999996 17.346000000000004,58 19,58 L41,58 C42.653999999999996,58 44,56.653999999999996 44,55 C44,53.62900000000002 43.07000000000005,52.48299999999995 41.81299999999999,52.125999999999976 C41.726,51.980999999999995 41.620000000000005,51.847999999999956 41.476,51.745000000000005 L39.672000000000025,50.474000000000046 C38.26599999999996,49.48299999999995 37.504999999999995,47.75300000000004 37.64700000000005,46 L55.50199999999995,46 C57.98199999999997,46 60,43.98199999999997 60,41.500999999999976 L60,37 L0,37 L0,41.500999999999976 z" id="svg_4"/><path d="M26,17 L24,17 C23.447000000000003,17 23,16.55200000000002 23,16 C23,15.447999999999979 23.447000000000003,15 24,15 L26,15 C26.552999999999997,15 27,15.447999999999979 27,16 C27,16.55200000000002 26.552999999999997,17 26,17 L26,17 zM20,17 L18,17 C17.447000000000003,17 17,16.55200000000002 17,16 C17,15.447999999999979 17.447000000000003,15 18,15 L20,15 C20.552999999999997,15 21,15.447999999999979 21,16 C21,16.55200000000002 20.552999999999997,17 20,17 L20,17 zM15,12 C15,12.552000000000021 14.552999999999997,13 14,13 C13.447000000000003,13 13,12.552000000000021 13,12 L13,6 C13,5.447999999999979 13.447000000000003,5 14,5 C14.552999999999997,5 15,5.447999999999979 15,6 L15,12 zM14,17 C13.447000000000003,17 13,16.55200000000002 13,16 C13,15.447999999999979 13.447000000000003,15 14,15 C14.552999999999997,15 15,15.447999999999979 15,16 C15,16.55200000000002 14.552999999999997,17 14,17 L14,17 zM10.624000000000024,16.78099999999995 C10.438999999999965,16.928999999999974 10.220000000000027,17 10.000999999999976,17 C9.706999999999994,17 9.416000000000054,16.87099999999998 9.219000000000051,16.624000000000024 L5.2309999999999945,11.630999999999972 C4.940000000000055,11.265999999999963 4.9389999999999645,10.749000000000024 5.230000000000018,10.384000000000015 L9.217999999999961,5.376999999999953 C9.562000000000012,4.946000000000026 10.188999999999965,4.874000000000024 10.623000000000047,5.217999999999961 C11.05499999999995,5.562000000000012 11.125999999999976,6.191000000000031 10.782000000000039,6.623000000000047 L7.29200000000003,11.005999999999972 L10.780999999999949,15.375999999999976 C11.125999999999976,15.807999999999993 11.05600000000004,16.437000000000012 10.624000000000024,16.78099999999995 L10.624000000000024,16.78099999999995 zM55.50199999999995,0 L4.498000000000047,0 C2.018000000000029,0 0,2.018000000000029 0,4.499000000000024 L0,35 L60,35 L60,4.499000000000024 C60,2.018000000000029 57.98199999999997,0 55.50199999999995,0 L55.50199999999995,0 z" id="svg_5"/></g></g></g></g></svg>